<?xml version="1.0" encoding="UTF-8" standalone="no"?>
<svg
   xmlns:dc="http://purl.org/dc/elements/1.1/"
   xmlns:cc="http://creativecommons.org/ns#"
   xmlns:rdf="http://www.w3.org/1999/02/22-rdf-syntax-ns#"
   xmlns:svg="http://www.w3.org/2000/svg"
   xmlns="http://www.w3.org/2000/svg"
   width="148.89903"
   height="50.690395"
   viewBox="0 0 39.396202 13.411834"
   version="1.1"
   id="svg1205">
  <defs
     id="defs1199" />
  <metadata
     id="metadata1202">
    <rdf:RDF>
      <cc:Work
         rdf:about="">
        <dc:format>image/svg+xml</dc:format>
        <dc:type
           rdf:resource="http://purl.org/dc/dcmitype/StillImage" />
        <dc:title />
      </cc:Work>
    </rdf:RDF>
  </metadata>
  <g
     id="layer1"
     transform="translate(-170.04595,-79.383352)">
    <path
       d="m 198.56479,83.234224 c -0.32104,-0.143313 -0.41382,-0.165484 -0.56975,-0.132422 -0.28569,0.06497 -0.64303,0.290463 -0.93149,0.591631 -0.16386,0.151444 -0.25262,0.220907 -0.22874,0.167398 0.0102,-0.06602 0.0671,-0.265239 0.11084,-0.463878 0.0904,-0.33184 0.0887,-0.371108 0.007,-0.446207 -0.37106,-0.215251 -0.55462,-0.288025 -0.75186,-0.09822 -1.1713,1.73955 -1.77881,5.049116 -0.25322,7.160396 0.0376,-0.04101 -0.12189,-1.267689 -0.0937,-1.725053 0.0623,-0.97324 0.11873,-1.271738 0.50655,-2.298584 0.4073,-0.962514 1.48578,-2.473805 2.42908,-2.122229 0.35002,0.171777 0.37898,0.112234 0.41899,0.0631 0.04,-0.04914 -0.081,-0.432003 -0.64343,-0.695907 z"
       style="font-style:normal;font-variant:normal;font-weight:normal;font-stretch:normal;font-size:33.3173px;line-height:125%;font-family:'Black Bones Personal Use';-inkscape-font-specification:'Black Bones Personal Use';letter-spacing:0px;word-spacing:0px;fill:#f2f2f2;fill-opacity:1;stroke:none;stroke-width:0.282223px;stroke-linecap:butt;stroke-linejoin:miter;stroke-opacity:1"
       id="path4272" />
    <path
       d="m 200.64281,83.394924 c -0.0655,0.02619 -0.0917,0 -0.0917,-0.03933 0,-0.03932 -0.0393,-0.05241 -0.0786,-0.03932 -0.0393,0.01309 -0.0786,-0.01309 -0.10482,-0.07862 -0.0393,-0.144128 -0.17033,-0.196537 -0.30136,-0.144128 -0.32756,0.117926 -0.68448,1.631549 -0.89413,3.190748 -0.23584,1.61161 0.0566,2.660323 0.78931,3.42602 0.30343,0.356548 0.51991,0.302136 0.38889,0.07939 -0.18344,-0.340665 -0.27096,-0.708316 -0.29717,-1.245518 -0.0262,-0.733744 0.0262,-1.074406 0.47169,-2.934964 0.45859,-1.939169 0.45859,-1.965373 0.32757,-2.122605 -0.0655,-0.07861 -0.14413,-0.10482 -0.20965,-0.09171 z m 0.70759,-2.306041 c -0.18344,0 -0.66823,0.301354 -1.0744,0.668229 -0.23585,0.209638 -0.23585,0.222741 -0.17034,0.366867 0.0393,0.104823 0.0917,0.144128 0.14413,0.131024 0.0524,-0.01309 0.0917,0.01309 0.0917,0.03932 0,0.02619 0.0524,0.01309 0.11792,-0.03932 0.0655,-0.05241 0.0786,-0.06551 0.0524,-0.02619 -0.0655,0.07861 -0.0917,0.262046 -0.0393,0.31446 0.0655,0.06551 0.20964,0.01309 0.28825,-0.117923 0.14413,-0.235845 0.58961,-0.642025 0.81236,-0.746845 0.11792,-0.05241 0.22274,-0.131025 0.22274,-0.170327 0,-0.06552 -0.36687,-0.419283 -0.44549,-0.419283 z"
       style="font-style:normal;font-variant:normal;font-weight:normal;font-stretch:normal;font-size:33.3173px;line-height:125%;font-family:'Black Bones Personal Use';-inkscape-font-specification:'Black Bones Personal Use';letter-spacing:0px;word-spacing:0px;fill:#f2f2f2;fill-opacity:1;stroke:none;stroke-width:0.282223px;stroke-linecap:butt;stroke-linejoin:miter;stroke-opacity:1"
       id="path4274" />
    <path
       d="m 202.59294,89.296281 c -0.13103,0.05241 -0.23585,0.10482 -0.23585,0.144126 0,0.104822 0.45859,0.327566 0.75995,0.353771 0.24895,0.02619 0.31446,0.01309 0.511,-0.104823 0.70753,-0.419278 1.71642,-1.939172 2.16191,-3.249419 0.15723,-0.471693 0.29296,-1.648277 -0.005,-2.024316 -0.40216,-0.587886 -1.02653,-0.664277 -1.64594,-0.386545 -0.31446,0.170329 -0.94338,0.79925 -1.29715,1.323351 -0.13102,0.196537 -0.24895,0.353768 -0.26205,0.353768 -0.0262,-0.03933 0.45859,-1.572305 0.68133,-2.175019 0.34066,-0.877866 0.73374,-1.768836 1.20543,-2.725318 0.24895,-0.484793 0.44549,-0.943382 0.44549,-0.995793 0,-0.05241 -0.0786,-0.131025 -0.17034,-0.19654 -0.27098,-0.311985 -0.396,-0.254931 -0.66822,-0.131021 -0.60272,0.576509 -1.78194,2.948065 -2.35845,4.743106 -0.56341,1.795043 -0.86477,3.734217 -0.74685,4.782416 -2.5e-4,0.686743 1.06956,1.452293 1.13992,0.550269 0.0131,-1.270946 0.81236,-3.026681 1.84746,-4.087984 0.34066,-0.327564 0.78614,-0.655128 0.90407,-0.655128 0.0786,0 0.0524,0.248948 -0.10482,0.838561 -0.41928,1.664019 -1.45438,3.39355 -2.16191,3.642496 z"
       style="font-style:normal;font-variant:normal;font-weight:normal;font-stretch:normal;font-size:33.3173px;line-height:125%;font-family:'Black Bones Personal Use';-inkscape-font-specification:'Black Bones Personal Use';letter-spacing:0px;word-spacing:0px;fill:#f2f2f2;fill-opacity:1;stroke:none;stroke-width:0.282223px;stroke-linecap:butt;stroke-linejoin:miter;stroke-opacity:1"
       id="path4276" />
    <path
       d="m 208.85544,83.312631 c -0.40618,-0.288256 -1.27264,-0.170332 -1.79674,0.31446 -0.40617,0.379973 -0.64202,0.851665 -0.72063,1.415071 -0.0655,0.589616 0.0126,1.113714 0.60219,1.965379 0.35377,0.524098 0.49816,0.996823 0.45885,1.376796 -0.0249,0.261797 -0.0759,1.427415 -2.79546,2.127509 -2.99702,0.771522 -6.42637,0.26131 -6.97384,0.202317 -0.54746,-0.05899 -2.5469,-0.503978 -3.16704,-0.924746 1.70537,2.100983 8.06387,2.307113 9.93827,1.914214 3.10452,-0.574864 5.05096,-2.445376 3.69276,-4.630564 -0.18343,-0.275147 -0.37997,-0.628918 -0.43238,-0.786147 -0.22275,-0.576512 -0.0393,-1.375763 0.43238,-1.899866 0.5377,-0.529751 0.52113,-0.243916 0.4979,0.275155 l -0.0262,0.628924 c 0.39913,0.138695 0.73384,-0.19549 0.82545,-0.497897 0.0655,-0.262054 0.0611,-0.318657 0.0262,-0.550308 -0.0824,-0.316755 -0.1751,-0.679464 -0.56171,-0.930297 z"
       style="font-style:normal;font-variant:normal;font-weight:normal;font-stretch:normal;font-size:33.3173px;line-height:125%;font-family:'Black Bones Personal Use';-inkscape-font-specification:'Black Bones Personal Use';letter-spacing:0px;word-spacing:0px;fill:#f2f2f2;fill-opacity:1;stroke:none;stroke-width:0.282223px;stroke-linecap:butt;stroke-linejoin:miter;stroke-opacity:1"
       id="path4278" />
    <g
       style="font-style:normal;font-variant:normal;font-weight:normal;font-stretch:normal;font-size:35.8042px;line-height:125%;font-family:Farisi;-inkscape-font-specification:Farisi;letter-spacing:0px;word-spacing:0px;fill:#f2f2f2;fill-opacity:1;stroke:none;stroke-width:1px;stroke-linecap:butt;stroke-linejoin:miter;stroke-opacity:1"
       id="text4280"
       transform="matrix(0.28222223,0,0,0.28222223,78.058002,46.667678)">
      <path
         d="m 394.92905,138.07881 q 0,4.47552 -2.43468,7.05343 -2.14826,2.29147 -5.33483,2.29147 -3.29399,0 -4.69035,-2.21986 h -0.0716 v 8.91525 h -4.61874 v -18.76141 q 0,-2.75693 -0.14322,-5.80029 h 4.04587 l 0.21483,2.61371 h 0.0716 q 1.96923,-2.97175 5.80028,-2.97175 3.04336,0 5.0842,2.43469 2.07664,2.43469 2.07664,6.44476 z m -4.69035,0.21482 q 0,-2.39888 -1.07412,-3.90266 -1.03833,-1.53958 -2.97175,-1.53958 -1.61119,0 -2.72112,1.25315 -1.07413,1.25315 -1.07413,2.90014 v 2.75693 q 0,1.68279 0.96671,2.82853 1.03833,1.25315 2.72112,1.25315 1.93343,0 3.04336,-1.50378 1.10993,-1.53958 1.10993,-4.04588 z"
         style="font-style:normal;font-variant:normal;font-weight:normal;font-stretch:normal;font-family:'Myriad Apple';-inkscape-font-specification:'Myriad Apple';fill:#f2f2f2"
         id="path4164" />
      <path
         d="m 413.48767,129.5574 -4.1891,11.887 q -3.07916,8.55721 -5.9793,11.17092 -2.18406,1.96923 -4.69035,2.29147 l -1.07413,-3.90266 q 1.18154,-0.28643 2.5421,-1.21734 1.39636,-0.93091 2.25566,-2.5421 0.28644,-0.53707 0.28644,-0.7877 0,-0.28643 -0.21483,-0.8593 l -6.30154,-16.04029 h 5.12 l 2.93595,9.20169 q 0.35804,1.10993 0.93091,3.32979 h 0.10741 q 0.25063,-1.14574 0.8593,-3.3656 l 2.5063,-9.16588 z"
         style="font-style:normal;font-variant:normal;font-weight:normal;font-stretch:normal;font-family:'Myriad Apple';-inkscape-font-specification:'Myriad Apple';fill:#f2f2f2"
         id="path4166" />
    </g>
    <path
       style="fill:#f2f2f2;stroke-width:0.282223"
       d="m 176.49513,81.188638 c -5.67484,0 -6.16369,0.0045 -6.26235,0.06284 -0.0589,0.03477 -0.12562,0.104056 -0.14828,0.153789 -0.0556,0.122002 -0.0503,0.318832 0.011,0.399629 0.0784,0.103203 0.30547,0.1808 0.52917,0.1808 h 0.20395 l 0.0254,0.383094 c 0.10294,1.570875 0.94114,3.145819 2.16021,4.058599 0.0976,0.07308 0.17858,0.15831 0.17914,0.189617 -1.14174,1.76778 -2.38262,9.140322 -0.43766,3.563608 h 1.67294 1.67294 l 0.0369,0.758472 c -0.0391,2.520965 0.87179,2.402096 0.79816,0.07937 l -0.0413,-0.837847 h 1.60403 c 0.88215,0 1.60405,0.01341 1.60404,0.02977 0.90793,5.154648 1.58023,0.169627 -0.30372,-3.561401 0,-0.03474 0.13198,-0.174535 0.2938,-0.310335 0.65612,-0.550641 1.05135,-1.04598 1.453,-1.823421 0.34171,-0.661416 0.54571,-1.398699 0.59311,-2.14037 l 0.0248,-0.389157 h 0.21993 c 0.25644,0 0.37627,-0.03858 0.48617,-0.156546 0.0872,-0.09356 0.10831,-0.32694 0.0408,-0.453099 -0.10559,-0.197304 0.22202,-0.187412 -6.41614,-0.187412 z m -4.8325,1.201648 c 0.31762,0.03667 1.08214,0.322462 2.11611,0.322462 1.37863,0 2.5411,-0.0905 2.54111,0.160954 0,0.251449 -1.33556,0.331831 -2.71419,0.331831 -1.37864,0 -2.10564,-0.06132 -2.10564,-0.7491 0,-0.06287 0.0567,-0.07837 0.16261,-0.06615 z m 9.76919,0 c 0.10587,-0.01222 0.16205,0.0033 0.16205,0.06615 0,0.687779 -0.72645,0.7491 -2.10509,0.7491 -1.37863,0 -2.71418,-0.08038 -2.71418,-0.331831 0,-0.251454 1.16247,-0.160954 2.5411,-0.160954 1.03398,0 1.79849,-0.285795 2.11612,-0.322462 z m -9.50406,1.031875 c 0.27664,0.02902 0.94216,0.255214 1.84271,0.255214 1.20074,0 2.21368,-0.07166 2.21368,0.12733 0,0.198981 -1.16341,0.26293 -2.36416,0.26293 -1.20074,0 -1.83389,-0.04884 -1.83389,-0.593107 0,-0.04975 0.0494,-0.06204 0.14166,-0.05237 z m 9.23892,0 c 0.0922,-0.0097 0.14111,0.0025 0.14111,0.05237 0,0.544265 -0.6326,0.593107 -1.83334,0.593107 -1.20074,0 -2.36416,-0.06395 -2.36416,-0.26293 0,-0.198989 1.01239,-0.12733 2.21313,-0.12733 0.90055,0 1.56662,-0.226196 1.84326,-0.255214 z m -8.9804,0.938169 c 0.23969,0.0223 0.81659,0.195682 1.59687,0.195682 1.04037,0 1.91823,-0.05477 1.91823,0.09812 0,0.152891 -1.00794,0.201744 -2.04831,0.201744 -1.04037,0 -1.58916,-0.03712 -1.58916,-0.455304 0,-0.03822 0.0425,-0.04767 0.12237,-0.04024 z m 8.72133,0 c 0.0799,-0.0074 0.12237,0.002 0.12237,0.04024 0,0.418189 -0.54824,0.455304 -1.5886,0.455304 -1.04037,0 -2.04832,-0.04885 -2.04832,-0.201744 0,-0.152888 0.87731,-0.09812 1.91768,-0.09812 0.78028,0 1.35718,-0.173386 1.59687,-0.195682 z m -8.12767,0.864306 c 0.18135,0.02382 0.61737,0.208909 1.20771,0.208912 0.78712,0 1.45135,-0.0581 1.45135,0.10528 0,0.163376 -0.7629,0.215525 -1.55002,0.215525 -0.78712,0 -1.20164,-0.03985 -1.20164,-0.486723 0,-0.04084 0.0322,-0.05094 0.0926,-0.04299 z m 7.53456,0 c 0.0605,-0.0079 0.0926,0.0022 0.0926,0.04299 0,0.446876 -0.41508,0.486723 -1.2022,0.486723 -0.78712,0 -1.54946,-0.05215 -1.54946,-0.215525 0,-0.163375 0.66368,-0.10528 1.45079,-0.10528 0.59034,0 1.02692,-0.18509 1.20827,-0.208912 z m -6.38583,1.821767 c 0.005,-0.0049 0.1726,0.05842 0.37207,0.140561 0.49623,0.204314 0.97327,0.33568 1.42104,0.391913 l 0.37648,0.04741 v 0.940373 0.81635 h -1.56601 c -0.86127,0 -1.566,-0.0086 -1.566,-0.0193 0,-0.03032 0.95229,-2.307178 0.96242,-2.317309 z m 5.08993,0.01487 c 0.57155,0.762155 0.62333,1.394409 0.89462,2.310695 0,0.02585 -2.99952,0.0088 -3.00247,-0.01707 -0.002,-0.01566 -0.004,0.06933 -0.005,-0.817454 l -0.002,-0.91226 0.37207,-0.04686 c 0.43253,-0.05432 0.92775,-0.18881 1.3841,-0.376479 0.17747,-0.07298 0.33894,-0.136384 0.35829,-0.14056 z"
       id="path4284" />
  </g>
</svg>
