<?xml version="1.0" standalone="no"?>
<!DOCTYPE svg PUBLIC "-//W3C//DTD SVG 20010904//EN"
 "http://www.w3.org/TR/2001/REC-SVG-20010904/DTD/svg10.dtd">
<svg version="1.0" xmlns="http://www.w3.org/2000/svg"
 width="700.000000pt" height="700.000000pt" viewBox="0 0 700.000000 700.000000"
 preserveAspectRatio="xMidYMid meet">
<metadata>
Created by potrace 1.11, written by Peter Selinger 2001-2013
</metadata>
<g transform="translate(0.000000,700.000000) scale(0.100000,-0.100000)"
fill="#000000" stroke="none">
<path d="M5373 5692 c-44 -59 -83 -113 -87 -120 -5 -8 20 -39 71 -90 86 -84
196 -213 188 -220 -5 -6 -35 -8 -220 -17 -71 -3 -164 -8 -205 -10 -41 -2 -138
-6 -215 -10 -77 -3 -167 -8 -200 -10 -33 -2 -125 -7 -205 -10 -80 -4 -149 -7
-154 -8 -5 -1 -36 37 -70 84 -60 84 -101 139 -121 162 -6 7 -23 28 -39 47 -42
52 -145 158 -205 212 l-53 48 -91 -121 -90 -120 83 -82 c85 -84 214 -236 206
-244 -2 -2 -39 -6 -83 -8 -43 -3 -127 -7 -188 -10 -60 -3 -150 -7 -200 -10
-49 -2 -144 -7 -210 -10 -66 -3 -156 -8 -200 -10 -44 -2 -137 -7 -207 -10
l-126 -6 -49 71 c-85 127 -213 282 -324 393 -59 59 -111 107 -116 107 -7 0
-151 -185 -175 -226 -5 -8 19 -38 68 -86 74 -70 239 -266 231 -274 -2 -2 -59
-6 -128 -10 -68 -3 -153 -7 -189 -9 -36 -2 -135 -6 -220 -10 -85 -4 -175 -8
-200 -10 -51 -4 -346 -17 -430 -19 l-54 -1 -67 98 c-37 54 -97 137 -135 185
-83 106 -290 316 -303 307 -5 -3 -48 -57 -96 -119 l-85 -114 66 -63 c212 -203
431 -533 569 -859 141 -331 240 -720 280 -1100 3 -30 8 -71 10 -90 22 -180 22
-639 0 -890 -2 -25 -7 -74 -10 -110 -6 -67 -12 -119 -21 -180 -2 -19 -6 -48
-8 -65 -15 -109 -18 -132 -21 -145 -3 -8 -7 -33 -10 -55 -3 -22 -10 -62 -15
-90 -5 -27 -12 -61 -14 -75 -13 -69 -48 -240 -58 -275 -5 -22 -12 -49 -14 -60
-2 -11 -19 -79 -38 -152 -30 -118 -32 -133 -17 -137 41 -13 209 -58 231 -62
14 -2 30 -6 36 -8 9 -4 63 189 101 362 8 37 16 76 19 87 2 11 11 53 19 93 8
40 16 76 19 81 3 4 22 8 43 8 21 0 94 4 163 7 179 10 257 14 410 21 74 4 162
8 195 10 33 2 130 6 215 10 85 4 179 8 208 10 l53 3 -6 -42 c-10 -56 -71 -320
-101 -430 -13 -50 -23 -91 -21 -92 1 -1 67 -20 147 -41 l144 -40 28 106 c15
58 37 147 48 196 11 50 29 129 39 177 11 48 23 106 26 130 4 24 9 45 11 47 4
5 20 6 224 16 80 3 170 8 200 10 30 2 125 7 210 10 85 4 178 8 205 10 28 1
121 6 207 10 87 4 174 8 195 10 21 1 41 1 44 -1 8 -5 -28 -177 -86 -404 -24
-96 -41 -178 -37 -182 14 -13 275 -79 283 -71 8 8 46 148 65 241 3 13 18 78
33 145 16 67 35 156 41 197 7 41 17 79 21 84 5 5 28 10 51 12 24 1 111 5 193
9 83 4 177 8 209 10 33 2 127 7 210 11 83 3 174 8 201 9 28 2 122 6 210 10 88
4 171 8 185 9 19 1 25 -4 24 -19 -1 -17 -20 -120 -28 -150 -1 -5 -8 -37 -15
-70 -7 -33 -31 -129 -52 -214 -22 -84 -38 -156 -35 -158 7 -7 280 -82 284 -78
10 10 115 439 136 560 3 17 8 41 11 55 3 14 7 39 10 55 3 17 10 53 15 80 12
63 47 292 55 365 3 30 8 66 10 80 2 14 7 61 10 105 3 44 8 96 10 115 21 197
22 658 0 875 -2 22 -7 72 -10 110 -8 85 -44 344 -51 364 -2 8 -7 30 -10 50 -3
20 -23 109 -45 198 -126 517 -345 976 -640 1343 -81 101 -246 273 -279 290
-15 8 -31 -9 -97 -98z m353 -689 c80 -135 163 -306 219 -448 25 -66 50 -129
55 -140 15 -37 62 -197 58 -200 -4 -4 -143 -14 -293 -20 -66 -3 -156 -8 -200
-10 -44 -2 -141 -7 -215 -10 -74 -4 -166 -8 -205 -10 -38 -2 -136 -7 -216 -11
l-147 -7 -16 59 c-67 240 -159 480 -260 679 -39 77 -71 144 -71 149 0 6 20 11
45 12 25 1 106 5 180 8 167 8 320 15 425 21 44 2 148 7 230 11 83 3 151 7 152
8 1 1 47 3 102 5 l100 2 57 -98z m-1598 -54 c103 -169 223 -436 292 -649 58
-181 58 -170 8 -171 -24 -1 -65 -2 -93 -4 -27 -1 -113 -6 -190 -9 -77 -4 -174
-8 -215 -11 -41 -2 -133 -7 -205 -10 -71 -4 -161 -8 -200 -10 -38 -2 -129 -7
-201 -10 l-132 -7 -10 34 c-6 18 -12 42 -15 53 -50 203 -196 574 -293 747 -18
32 -30 59 -26 62 4 2 41 4 82 5 41 1 93 4 115 5 22 2 110 7 195 11 192 8 287
13 415 20 55 2 161 7 235 11 74 3 137 7 138 9 2 2 15 2 30 1 20 -2 35 -19 70
-77z m-1590 -68 c65 -106 164 -311 219 -451 27 -70 106 -307 117 -352 l6 -28
-62 -1 c-68 -1 -134 -4 -298 -13 -58 -3 -157 -8 -220 -11 -63 -3 -146 -7 -185
-10 -114 -7 -364 -18 -444 -19 l-73 -1 -45 155 c-59 207 -130 393 -219 579
-41 85 -73 155 -72 157 2 1 68 5 148 8 80 4 177 9 215 11 39 2 129 7 200 10
72 3 159 7 195 10 36 2 132 7 215 10 82 4 151 7 152 8 1 2 26 3 56 3 l54 1 41
-66z m3581 -893 c7 -35 19 -99 27 -143 16 -86 21 -118 29 -180 3 -22 7 -56 10
-75 2 -19 7 -59 10 -87 3 -29 7 -74 10 -100 3 -27 7 -114 10 -196 5 -115 3
-148 -7 -152 -7 -2 -78 -7 -158 -10 -80 -4 -174 -8 -210 -10 -36 -1 -130 -6
-210 -10 -80 -3 -174 -8 -210 -10 -103 -6 -359 -17 -430 -19 l-65 -1 -1 60
c-3 96 -15 345 -19 363 -1 9 -6 46 -9 82 -8 83 -20 172 -32 245 -17 101 -36
203 -41 223 -5 19 -1 22 28 23 77 3 160 7 254 13 95 5 300 16 430 21 174 8
360 17 362 18 1 1 48 3 106 5 l105 3 11 -63z m-1596 -70 c8 -35 18 -83 22
-108 4 -25 9 -54 11 -65 9 -42 33 -223 39 -290 4 -38 8 -80 10 -93 9 -56 16
-382 9 -383 -5 0 -17 -2 -26 -4 -10 -2 -93 -6 -185 -10 -93 -4 -188 -9 -213
-10 -25 -1 -112 -6 -195 -9 -82 -4 -179 -9 -215 -11 -90 -5 -344 -17 -404 -19
l-50 -1 -2 100 c-3 122 -13 316 -19 370 -3 22 -7 63 -10 90 -9 77 -16 127 -21
158 -11 68 -31 188 -40 240 -6 35 -5 37 22 38 16 1 45 3 64 4 19 1 98 6 175 9
77 4 169 9 205 11 56 3 143 7 410 20 30 2 127 6 215 10 88 4 162 9 164 11 12
12 20 -2 34 -58z m-1608 -30 c6 -6 30 -111 40 -178 2 -14 6 -38 9 -55 3 -16 7
-50 11 -75 3 -25 8 -56 10 -70 4 -22 7 -55 21 -194 2 -23 7 -126 10 -231 l7
-190 -39 -1 c-42 -1 -312 -13 -404 -19 -59 -3 -329 -16 -420 -20 -91 -4 -321
-16 -377 -19 -29 -2 -53 -1 -54 3 0 3 -2 67 -4 141 -3 132 -12 280 -20 363
-14 138 -41 328 -60 417 -7 36 -12 66 -10 68 4 5 86 11 220 17 145 6 278 12
435 20 220 12 269 14 415 20 83 4 151 8 152 9 5 5 52 0 58 -6z m3299 -1058
c-1 -83 -13 -297 -18 -330 -3 -14 -7 -54 -10 -90 -6 -59 -21 -187 -31 -250 -2
-14 -6 -43 -10 -65 -13 -98 -14 -99 -53 -101 -15 -1 -94 -4 -177 -8 -82 -4
-177 -9 -210 -11 -101 -5 -325 -16 -620 -30 -77 -3 -164 -8 -192 -10 -60 -5
-58 -9 -43 80 10 66 17 113 25 190 4 28 8 61 10 75 2 14 7 61 10 105 4 44 9
94 11 110 2 17 6 98 10 180 3 83 7 151 9 153 3 4 90 9 260 17 72 3 159 8 195
10 36 2 133 7 215 10 83 4 173 8 200 10 28 2 122 7 210 10 88 4 161 8 163 10
1 1 13 2 25 1 20 -1 22 -6 21 -66z m-1600 -71 c-2 -152 -23 -404 -49 -589 -26
-181 -39 -250 -49 -251 -6 -1 -24 -2 -41 -4 -16 -1 -102 -6 -190 -10 -88 -3
-182 -8 -210 -10 -27 -2 -115 -6 -195 -10 -80 -3 -174 -8 -210 -10 -36 -2
-135 -6 -220 -10 -85 -4 -163 -9 -173 -11 -37 -7 -45 4 -36 52 5 25 11 66 15
92 3 26 8 55 10 66 2 10 6 44 9 75 4 31 8 67 10 80 2 13 7 58 10 100 4 42 8
87 10 101 5 29 19 287 17 313 0 9 2 17 6 18 19 3 90 7 222 13 80 3 179 8 220
11 41 2 131 7 200 11 69 3 152 7 185 9 33 2 134 6 225 10 91 4 166 9 168 10 2
2 18 2 35 1 32 -3 32 -3 31 -57z m-1598 -123 c-4 -55 -8 -126 -11 -156 -17
-202 -22 -251 -30 -305 -10 -61 -13 -85 -20 -145 -4 -30 -8 -57 -10 -60 -2 -3
-7 -33 -10 -65 -4 -33 -8 -61 -9 -62 -3 -3 -135 -12 -276 -18 -74 -3 -169 -8
-210 -10 -41 -3 -133 -7 -205 -10 -71 -3 -159 -8 -195 -10 -212 -13 -399 -19
-405 -13 -1 2 4 41 11 88 8 47 17 105 20 130 3 25 7 56 9 70 9 61 21 172 30
285 4 44 8 98 10 120 2 22 5 75 6 118 2 81 6 87 59 85 14 -1 203 8 365 17 84
5 288 15 405 20 297 14 365 17 367 19 1 0 25 2 53 2 l52 1 -6 -101z"/>
</g>
</svg>
