<?xml version="1.0" standalone="no"?>
<!DOCTYPE svg PUBLIC "-//W3C//DTD SVG 20010904//EN"
 "http://www.w3.org/TR/2001/REC-SVG-20010904/DTD/svg10.dtd">
<svg version="1.0" xmlns="http://www.w3.org/2000/svg"
 width="700.000000pt" height="700.000000pt" viewBox="0 0 700.000000 700.000000"
 preserveAspectRatio="xMidYMid meet">
<metadata>
Created by potrace 1.11, written by Peter Selinger 2001-2013
</metadata>
<g transform="translate(0.000000,700.000000) scale(0.100000,-0.100000)"
fill="#000000" stroke="none">
<path d="M1075 6985 c-277 -44 -515 -164 -703 -355 -205 -206 -325 -452 -362
-740 -8 -60 -10 -774 -8 -2445 3 -2228 5 -2364 22 -2435 123 -516 488 -877
997 -987 80 -17 202 -18 2479 -18 2277 0 2399 1 2479 18 509 110 874 471 997
987 17 71 19 207 22 2425 2 1646 0 2378 -8 2445 -34 296 -156 546 -373 761
-164 163 -372 274 -627 335 -71 17 -204 18 -2455 20 -1897 2 -2396 0 -2460
-11z m5124 -1154 c136 -13 156 -22 177 -77 21 -55 14 -146 -14 -183 -39 -53
-96 -74 -213 -79 l-108 -5 -5 -51 c-3 -28 -10 -109 -16 -181 -24 -298 -108
-592 -250 -876 -169 -338 -317 -530 -627 -811 -79 -71 -147 -138 -153 -148 -8
-14 1 -42 41 -127 273 -585 453 -1316 485 -1978 11 -234 -20 -458 -68 -488
-80 -51 -181 217 -292 768 l-42 210 -145 6 c-79 4 -402 7 -717 8 l-573 1 8
-178 c11 -237 8 -506 -6 -622 -43 -347 -161 -476 -252 -275 -59 130 -84 335
-94 750 -3 138 -8 267 -12 288 l-6 37 -748 0 -747 0 -12 -37 c-38 -117 -180
-487 -233 -603 -89 -197 -141 -280 -174 -280 -60 0 -36 337 57 800 128 638
324 1269 501 1609 69 134 76 112 -71 230 -488 393 -828 1013 -904 1651 -9 69
-18 164 -21 211 l-7 86 -97 6 c-108 5 -182 30 -223 74 -20 21 -23 35 -23 96 0
59 4 78 23 105 48 66 45 66 482 73 633 10 4960 2 5079 -10z"/>
<path d="M1263 5294 c-10 -26 6 -107 30 -154 43 -84 140 -136 305 -165 274
-48 1261 -36 1592 20 210 35 285 90 189 138 -66 32 -181 38 -739 36 -662 -2
-677 0 -1142 105 -173 40 -225 44 -235 20z"/>
<path d="M5665 5303 c-504 -127 -588 -136 -1260 -134 -630 2 -747 -7 -776 -61
-38 -71 175 -125 581 -147 486 -27 1040 -20 1232 14 173 30 263 81 311 175 22
43 27 66 25 105 l-3 50 -45 2 c-25 0 -54 -1 -65 -4z"/>
<path d="M1403 4843 c-17 -6 -16 -65 0 -106 33 -78 132 -131 297 -159 105 -18
1002 -18 1195 0 305 29 440 78 345 127 -53 27 -217 35 -695 33 -526 -3 -536
-2 -903 72 -202 40 -217 42 -239 33z"/>
<path d="M5475 4826 c-430 -92 -429 -91 -975 -89 -457 3 -649 -5 -693 -28 -51
-27 -43 -52 26 -77 125 -47 319 -62 847 -69 583 -7 751 8 871 80 68 41 100 93
97 157 -3 42 -5 45 -33 47 -16 1 -79 -8 -140 -21z"/>
<path d="M1521 4421 c-9 -6 -11 -18 -6 -42 16 -75 70 -116 187 -144 98 -23
425 -37 703 -30 516 13 735 40 735 91 0 34 -46 38 -580 45 -543 7 -563 8 -840
59 -183 33 -180 33 -199 21z"/>
<path d="M5345 4405 c-289 -56 -299 -57 -860 -64 -545 -7 -585 -10 -585 -47 0
-56 311 -86 885 -87 386 -1 496 7 600 40 91 28 150 91 143 151 -4 36 -30 37
-183 7z"/>
<path d="M1795 4029 c-9 -14 3 -76 21 -111 21 -40 79 -75 159 -95 59 -14 119
-17 380 -17 316 0 483 12 585 40 63 18 80 29 80 54 0 40 -37 44 -455 51 -428
7 -410 5 -649 68 -90 24 -112 26 -121 10z"/>
<path d="M5105 4015 c-214 -58 -207 -57 -630 -64 -419 -7 -455 -12 -455 -52 0
-44 125 -73 377 -89 335 -20 624 -8 727 31 64 23 112 72 121 123 16 81 -3 87
-140 51z"/>
<path d="M2337 3193 c-31 -60 -417 -991 -417 -1004 0 -5 309 -9 700 -9 l700 0
-2 392 -3 392 -125 17 c-242 32 -413 77 -677 180 -83 32 -154 59 -157 59 -3 0
-12 -12 -19 -27z"/>
<path d="M4495 3164 c-234 -95 -443 -151 -680 -183 l-130 -17 -3 -386 -2 -385
31 -7 c17 -3 322 -6 676 -6 537 0 644 2 640 13 -3 8 -35 124 -71 258 -73 274
-114 395 -176 519 -58 116 -141 240 -160 240 -8 -1 -64 -21 -125 -46z"/>
</g>
</svg>
