<?xml version="1.0" standalone="no"?>
<!DOCTYPE svg PUBLIC "-//W3C//DTD SVG 20010904//EN"
 "http://www.w3.org/TR/2001/REC-SVG-20010904/DTD/svg10.dtd">
<svg version="1.0" xmlns="http://www.w3.org/2000/svg"
 width="700.000000pt" height="700.000000pt" viewBox="0 0 700.000000 700.000000"
 preserveAspectRatio="xMidYMid meet">
<metadata>
Created by potrace 1.11, written by Peter Selinger 2001-2013
</metadata>
<g transform="translate(0.000000,700.000000) scale(0.100000,-0.100000)"
fill="#000000" stroke="none">
<path d="M2343 6356 c-10 -69 -9 -241 2 -300 31 -176 117 -334 281 -516 117
-131 147 -204 146 -360 -1 -52 -3 -106 -7 -120 -3 -14 -8 -38 -11 -54 -2 -16
-7 -33 -10 -38 -3 -4 1 -8 8 -8 85 -3 280 -1 283 1 17 18 27 342 12 407 -26
115 -100 240 -261 443 -146 183 -161 218 -161 379 0 63 2 140 5 170 l5 55
-142 1 -142 1 -8 -61z"/>
<path d="M3075 6401 c-24 -63 -22 -326 4 -393 5 -13 9 -27 10 -33 3 -30 38
-118 69 -175 48 -89 109 -173 183 -250 125 -132 154 -198 153 -360 0 -101 -4
-143 -19 -202 l-7 -28 73 -1 c140 -1 212 0 216 5 3 2 6 17 8 33 32 254 21 371
-51 516 -29 59 -134 221 -153 237 -11 9 -127 153 -149 186 -62 90 -83 236 -57
398 6 42 9 78 6 80 -3 2 -68 4 -143 4 -117 0 -138 -3 -143 -17z"/>
<path d="M3804 6376 c-4 -23 -8 -91 -9 -153 -4 -252 78 -450 279 -671 102
-113 134 -169 152 -266 7 -38 7 -172 0 -206 -3 -13 -8 -42 -12 -64 -3 -22 -8
-44 -10 -48 -6 -9 11 -10 170 -9 60 0 113 4 117 8 18 19 32 302 18 383 -9 53
-58 167 -102 240 -36 59 -147 208 -180 242 -24 24 -95 123 -110 153 -33 67
-48 219 -32 331 3 21 8 53 10 70 l4 31 -143 0 -144 0 -8 -41z"/>
<path d="M1463 4552 c13 -257 77 -511 188 -749 43 -92 138 -256 151 -261 4 -2
8 -8 8 -14 0 -11 72 -107 143 -190 151 -180 399 -374 614 -483 l92 -46 -30
-47 c-17 -26 -65 -101 -109 -167 -78 -119 -283 -436 -350 -540 -46 -71 -175
-271 -410 -630 -307 -471 -309 -474 -297 -575 23 -190 205 -307 384 -246 95
32 114 56 370 458 l68 108 926 0 926 0 18 -47 c35 -90 129 -227 212 -304 213
-201 521 -280 808 -208 338 85 599 378 651 729 7 52 7 203 -1 240 -3 14 -8 41
-11 60 -8 55 -43 148 -85 231 -123 237 -367 409 -643 453 -49 8 -211 8 -251 1
-235 -45 -419 -151 -562 -327 -34 -41 -101 -156 -119 -204 l-17 -44 -734 0
-735 0 23 38 c23 36 224 346 280 430 16 24 29 47 29 52 0 4 3 10 8 12 4 1 59
83 122 181 l114 177 91 -7 c113 -8 203 -8 326 0 l96 7 33 -53 c81 -125 253
-392 256 -396 2 -2 40 35 86 81 101 103 186 167 296 221 45 23 82 45 82 50 0
7 -52 91 -130 208 l-37 56 76 39 c131 67 342 208 410 272 10 10 40 38 67 63
316 298 534 693 608 1102 24 130 26 145 32 268 l7 117 -2043 0 -2042 0 5 -116z
m3590 -2818 c75 -25 157 -110 181 -187 45 -143 -22 -291 -161 -354 -46 -21
-66 -24 -126 -21 -88 5 -137 27 -199 90 -208 212 21 566 305 472z"/>
</g>
</svg>
